REM MD5 787c00078cad7751c1d03f47206ad779
FILE "Official U.S. PlayStation Magazine Demo Disc 29 (USA).bin" BINARY
  TRACK 01 MODE2/2352
    INDEX 01 00:00:00
  TRACK 02 AUDIO
    INDEX 00 24:24:38
    INDEX 01 24:26:38
  TRACK 03 AUDIO
    INDEX 00 25:34:63
    INDEX 01 25:36:63
REM LEADOUT 25:42:59
